<svg width="274" height="57" viewBox="0 0 274 57" fill="none" xmlns="http://www.w3.org/2000/svg">
<path d="M260 45.356V41H264.136V45.356H260Z" fill="#F13024"/>
<path d="M16.9805 19.417C18.2682 19.417 19.4437 19.694 20.5068 20.248C21.57 20.8021 22.4834 21.6257 23.2471 22.7188C24.0107 23.8118 24.6022 25.167 25.0215 26.7842C25.4557 28.4014 25.6729 30.2731 25.6729 32.3994C25.6729 34.5557 25.4557 36.4499 25.0215 38.082C24.6022 39.6992 24.0033 41.0544 23.2246 42.1475C22.446 43.2406 21.5101 44.0641 20.417 44.6182C19.3239 45.1722 18.1185 45.4492 16.8008 45.4492C15.9622 45.4492 15.2135 45.3594 14.5547 45.1797C13.9108 45 13.3343 44.7604 12.8252 44.4609C12.3161 44.1615 11.8669 43.8245 11.4775 43.4502C11.1032 43.0609 10.7588 42.6566 10.4443 42.2373H9.97266L8.82715 45H3.59375V10.0508H10.4443V18.1816C10.4443 18.6758 10.4294 19.2148 10.3994 19.7988C10.3695 20.3678 10.3395 20.8994 10.3096 21.3936C10.2646 21.9775 10.2197 22.5615 10.1748 23.1455H10.4443C10.7588 22.6214 11.1182 22.1348 11.5225 21.6855C11.9268 21.2363 12.391 20.847 12.915 20.5176C13.4541 20.1732 14.0605 19.9036 14.7344 19.709C15.4082 19.5143 16.1569 19.417 16.9805 19.417ZM14.667 24.8975C13.9033 24.8975 13.252 25.0397 12.7129 25.3242C12.1888 25.5938 11.762 26.0055 11.4326 26.5596C11.1032 27.1136 10.8636 27.8174 10.7139 28.6709C10.5641 29.5094 10.4743 30.4902 10.4443 31.6133V32.3545C10.4443 33.5674 10.5117 34.6455 10.6465 35.5889C10.7962 36.5322 11.0358 37.3258 11.3652 37.9697C11.6947 38.5986 12.1289 39.0778 12.668 39.4072C13.222 39.7367 13.9033 39.9014 14.7119 39.9014C16.0745 39.9014 17.0703 39.2575 17.6992 37.9697C18.3431 36.667 18.665 34.7803 18.665 32.3096C18.665 29.8389 18.3431 27.9896 17.6992 26.7617C17.0703 25.5189 16.0596 24.8975 14.667 24.8975ZM31.2881 13.3975C31.2881 12.7536 31.3854 12.222 31.5801 11.8027C31.7747 11.3685 32.0368 11.0241 32.3662 10.7695C32.7106 10.5 33.1074 10.3128 33.5566 10.208C34.0208 10.1032 34.5075 10.0508 35.0166 10.0508C35.5257 10.0508 36.0049 10.1032 36.4541 10.208C36.9033 10.3128 37.2926 10.5 37.6221 10.7695C37.9665 11.0241 38.236 11.3685 38.4307 11.8027C38.6403 12.222 38.7451 12.7536 38.7451 13.3975C38.7451 14.0264 38.6403 14.5579 38.4307 14.9922C38.236 15.4264 37.9665 15.7783 37.6221 16.0479C37.2926 16.3024 36.9033 16.4896 36.4541 16.6094C36.0049 16.7142 35.5257 16.7666 35.0166 16.7666C34.5075 16.7666 34.0208 16.7142 33.5566 16.6094C33.1074 16.4896 32.7106 16.3024 32.3662 16.0479C32.0368 15.7783 31.7747 15.4264 31.5801 14.9922C31.3854 14.5579 31.2881 14.0264 31.2881 13.3975ZM38.4307 45H31.5801V19.8887H38.4307V45ZM52.4912 45H45.6406V10.0508H52.4912V45ZM81.4883 45H74.6377V30.333C74.6377 28.5212 74.3532 27.166 73.7842 26.2676C73.2301 25.3542 72.3691 24.8975 71.2012 24.8975C70.3177 24.8975 69.5765 25.0771 68.9775 25.4365C68.3786 25.7959 67.8994 26.3275 67.54 27.0312C67.1807 27.735 66.9261 28.6035 66.7764 29.6367C66.6266 30.6699 66.5518 31.8529 66.5518 33.1855V45H59.7012V10.0508H66.5518V17.1709C66.5518 17.7998 66.5368 18.4661 66.5068 19.1699C66.4769 19.8587 66.4395 20.4951 66.3945 21.0791C66.3346 21.7679 66.2822 22.4417 66.2373 23.1006H66.5967C67.3304 21.7979 68.2663 20.862 69.4043 20.293C70.5423 19.709 71.8301 19.417 73.2676 19.417C74.5104 19.417 75.6335 19.5967 76.6367 19.9561C77.6549 20.3005 78.5234 20.847 79.2422 21.5957C79.9609 22.3444 80.515 23.3027 80.9043 24.4707C81.2936 25.6237 81.4883 27.0088 81.4883 28.626V45ZM103.118 45L101.793 41.5859H101.591C101.097 42.2598 100.603 42.8438 100.108 43.3379C99.6143 43.8171 99.0752 44.2139 98.4912 44.5283C97.9072 44.8428 97.2484 45.0749 96.5146 45.2246C95.7959 45.3743 94.9574 45.4492 93.999 45.4492C92.9808 45.4492 92.0374 45.292 91.1689 44.9775C90.3005 44.6481 89.5443 44.1615 88.9004 43.5176C88.2715 42.8587 87.7773 42.0352 87.418 41.0469C87.0586 40.0436 86.8789 38.8607 86.8789 37.498C86.8789 34.8327 87.7324 32.8711 89.4395 31.6133C91.1465 30.3405 93.6995 29.6367 97.0986 29.502L101.097 29.3672V27.4805C101.097 26.4473 100.797 25.6836 100.198 25.1895C99.5993 24.6953 98.7607 24.4482 97.6826 24.4482C96.6045 24.4482 95.5488 24.6055 94.5156 24.9199C93.4974 25.2344 92.4717 25.6536 91.4385 26.1777L89.2148 21.6406C90.4727 20.9368 91.8652 20.3828 93.3926 19.9785C94.9199 19.5742 96.5221 19.3721 98.1992 19.3721C101.329 19.3721 103.725 20.1058 105.387 21.5732C107.064 23.0407 107.902 25.2718 107.902 28.2666V45H103.118ZM101.097 33.3652L98.8281 33.4551C97.9147 33.485 97.1436 33.6048 96.5146 33.8145C95.8857 34.0241 95.3766 34.3086 94.9873 34.668C94.613 35.0124 94.3359 35.4316 94.1562 35.9258C93.9915 36.4049 93.9092 36.944 93.9092 37.543C93.9092 38.5911 94.1637 39.3398 94.6729 39.7891C95.182 40.2233 95.8483 40.4404 96.6719 40.4404C97.3008 40.4404 97.8848 40.3356 98.4238 40.126C98.9629 39.9014 99.4271 39.5794 99.8164 39.1602C100.221 38.7259 100.535 38.2018 100.76 37.5879C100.984 36.959 101.097 36.2402 101.097 35.4316V33.3652ZM124.883 40.0811C125.706 40.0811 126.395 39.9463 126.949 39.6768C127.518 39.3923 127.975 38.973 128.319 38.4189C128.664 37.8649 128.918 37.1686 129.083 36.3301C129.248 35.4766 129.338 34.4883 129.353 33.3652V32.5342C129.353 31.3213 129.278 30.2432 129.128 29.2998C128.993 28.3564 128.746 27.5703 128.387 26.9414C128.042 26.2975 127.578 25.8109 126.994 25.4814C126.425 25.152 125.706 24.9873 124.838 24.9873C123.4 24.9873 122.345 25.6387 121.671 26.9414C120.997 28.2292 120.66 30.1084 120.66 32.5791C120.66 35.0947 120.997 36.974 121.671 38.2168C122.36 39.4596 123.43 40.0811 124.883 40.0811ZM122.345 45.4492C121.042 45.4492 119.859 45.1722 118.796 44.6182C117.733 44.0641 116.819 43.248 116.056 42.1699C115.292 41.0768 114.701 39.7217 114.281 38.1045C113.862 36.4873 113.652 34.6156 113.652 32.4893C113.652 30.348 113.862 28.4688 114.281 26.8516C114.715 25.2194 115.322 23.8568 116.101 22.7637C116.894 21.6556 117.838 20.8245 118.931 20.2705C120.024 19.7015 121.229 19.417 122.547 19.417C123.385 19.417 124.142 19.5143 124.815 19.709C125.489 19.8887 126.096 20.1507 126.635 20.4951C127.189 20.8245 127.675 21.2139 128.095 21.6631C128.514 22.0973 128.888 22.5765 129.218 23.1006H129.397L129.937 19.8887H135.731V56.0508H128.881V45.5166C128.881 45.2321 128.896 44.8802 128.926 44.4609C128.971 44.0267 129.008 43.6074 129.038 43.2031C129.083 42.724 129.128 42.2373 129.173 41.7432H128.881C128.581 42.2523 128.229 42.7389 127.825 43.2031C127.421 43.6523 126.949 44.0417 126.41 44.3711C125.886 44.7005 125.287 44.9626 124.613 45.1572C123.939 45.3519 123.183 45.4492 122.345 45.4492ZM163.197 45.5881C161.607 45.5881 160.164 45.2886 158.868 44.6896C157.572 44.0798 156.543 43.2031 155.781 42.0597C155.019 40.9053 154.637 39.5114 154.637 37.8778C154.637 36.4403 154.921 35.2751 155.487 34.3821C156.053 33.4782 156.81 32.7704 157.757 32.2585C158.705 31.7467 159.75 31.3655 160.894 31.1151C162.048 30.8537 163.208 30.6468 164.373 30.4943C165.898 30.2983 167.134 30.1513 168.081 30.0533C169.04 29.9444 169.737 29.7647 170.172 29.5142C170.619 29.2637 170.842 28.8281 170.842 28.2074V28.0767C170.842 26.465 170.401 25.2126 169.519 24.3196C168.648 23.4266 167.324 22.9801 165.549 22.9801C163.709 22.9801 162.266 23.383 161.221 24.1889C160.175 24.9948 159.44 25.8551 159.015 26.7699L155.356 25.4631C156.01 23.9384 156.881 22.7514 157.97 21.902C159.07 21.0417 160.268 20.4427 161.564 20.1051C162.87 19.7566 164.155 19.5824 165.419 19.5824C166.225 19.5824 167.15 19.6804 168.196 19.8764C169.252 20.0616 170.27 20.4482 171.25 21.0362C172.241 21.6243 173.064 22.5118 173.717 23.6989C174.37 24.8859 174.697 26.4759 174.697 28.4688V45H170.842V41.6023H170.646C170.385 42.1468 169.949 42.7294 169.339 43.3501C168.729 43.9709 167.918 44.4991 166.905 44.9347C165.892 45.3703 164.656 45.5881 163.197 45.5881ZM163.785 42.125C165.31 42.125 166.595 41.8255 167.64 41.2266C168.697 40.6276 169.492 39.8544 170.025 38.907C170.57 37.9595 170.842 36.9631 170.842 35.9176V32.3892C170.679 32.5852 170.319 32.7649 169.764 32.9283C169.219 33.0807 168.588 33.2169 167.869 33.3366C167.161 33.4455 166.47 33.5436 165.794 33.6307C165.13 33.7069 164.591 33.7723 164.177 33.8267C163.175 33.9574 162.239 34.1697 161.368 34.4638C160.507 34.7469 159.81 35.1771 159.277 35.7543C158.754 36.3205 158.493 37.0937 158.493 38.0739C158.493 39.4134 158.988 40.4261 159.979 41.1122C160.981 41.7874 162.25 42.125 163.785 42.125ZM201.352 19.9091L192.074 45H188.153L178.875 19.9091H183.057L189.983 39.9034H190.244L197.17 19.9091H201.352ZM206.441 45V19.9091H210.296V45H206.441ZM208.401 15.7273C207.649 15.7273 207.001 15.4714 206.457 14.9595C205.923 14.4477 205.656 13.8324 205.656 13.1136C205.656 12.3949 205.923 11.7796 206.457 11.2678C207.001 10.7559 207.649 10.5 208.401 10.5C209.152 10.5 209.795 10.7559 210.328 11.2678C210.873 11.7796 211.145 12.3949 211.145 13.1136C211.145 13.8324 210.873 14.4477 210.328 14.9595C209.795 15.4714 209.152 15.7273 208.401 15.7273ZM241.141 45H230.817V11.5455H241.598C244.843 11.5455 247.62 12.2152 249.929 13.5547C252.238 14.8833 254.007 16.7945 255.238 19.2884C256.469 21.7713 257.084 24.7443 257.084 28.2074C257.084 31.6922 256.463 34.6925 255.222 37.2081C253.98 39.7128 252.172 41.6404 249.798 42.9908C247.424 44.3303 244.538 45 241.141 45ZM234.868 41.4062H240.879C243.645 41.4062 245.938 40.8726 247.756 39.8054C249.575 38.7382 250.931 37.219 251.824 35.2479C252.717 33.2768 253.163 30.9299 253.163 28.2074C253.163 25.5066 252.722 23.1816 251.84 21.2322C250.958 19.272 249.64 17.7692 247.887 16.7237C246.134 15.6674 243.95 15.1392 241.337 15.1392H234.868V41.4062Z" fill="white"/>
</svg>
